<svg width="19" height="23" viewBox="0 0 19 23" fill="none" xmlns="http://www.w3.org/2000/svg">
<g id="basket">
<path id="Rectangle-10" fill-rule="evenodd" clip-rule="evenodd" d="M18.9474 6.85883H0V18.6483C0 20.8574 1.79086 22.6483 4 22.6483H14.9474C17.1565 22.6483 18.9474 20.8574 18.9474 18.6483V6.85883ZM4 21.1483C2.61929 21.1483 1.5 20.029 1.5 18.6483V8.35883H17.4474V18.6483C17.4474 20.029 16.3281 21.1483 14.9474 21.1483H4Z" fill="#262626"/>
<path id="Rectangle-3" d="M6.01316 12.0601V5.86812C6.01316 3.95692 7.56249 2.40759 9.47368 2.40759C11.3849 2.40759 12.9342 3.95692 12.9342 5.86812V12.0601C12.9342 12.4743 13.27 12.8101 13.6842 12.8101C14.0984 12.8101 14.4342 12.4743 14.4342 12.0601V5.86812C14.4342 3.1285 12.2133 0.907593 9.47368 0.907593C6.73406 0.907593 4.51316 3.1285 4.51316 5.86812V12.0601C4.51316 12.4743 4.84894 12.8101 5.26316 12.8101C5.67737 12.8101 6.01316 12.4743 6.01316 12.0601Z" fill="#262626"/>
</g>
</svg>
