<svg width="192" height="21" viewBox="0 0 192 21" fill="none" xmlns="http://www.w3.org/2000/svg">
<g id="white-logo">
<g id="XMLID_234_">
<path id="XMLID_243_" d="M15.077 1.84615V12.4615C15.077 16 13.5386 17.4615 9.84625 17.4615C6.15394 17.4615 4.61548 16 4.61548 12.4615V1.38461H1.07702C0.846248 1.38461 0.615479 1.61538 0.615479 1.84615V12.6154C0.615479 18.5385 4.38471 20.6154 9.84625 20.6154C15.3078 20.6154 19.077 18.5385 19.077 12.6154V1.38461H15.5386C15.3078 1.38461 15.077 1.53846 15.077 1.84615V1.84615Z" fill="white"/>
<path id="XMLID_242_" d="M66.5385 4.46154C66.8462 4.46154 67.0001 4.38461 67.077 4.15384L68.077 1.61538C68.1539 1.46154 68.077 1.38461 67.9231 1.38461H53.6154C52.3077 1.38461 51.7693 1.76923 51.7693 2.69231V19.1538C51.7693 19.9231 52.1539 20.3077 53.1539 20.3077H66.4616C66.7693 20.3077 66.9231 20.2308 67.0001 20L68.0001 17.4615C68.077 17.3077 68.0001 17.2308 67.8462 17.2308H55.6924V13.8462C55.6924 12.6923 56.3077 12.1538 58.077 12.1538H63.3847C63.6924 12.1538 63.8462 12.0769 63.9231 11.8462L64.9231 9.38461C65.0001 9.23077 64.9231 9.15384 64.7693 9.15384H55.7693V4.38461H66.5385V4.46154Z" fill="white"/>
<path id="XMLID_238_" fill-rule="evenodd" clip-rule="evenodd" d="M41.3847 10.3077C42.9232 9.46154 43.5385 8 43.5385 6.15384C43.5385 2 40.1539 1.38461 36.6155 1.38461H28.5385C27.2308 1.38461 26.6924 1.76923 26.6924 2.69231V19.1538C26.6924 19.9231 27.077 20.3077 28.077 20.3077H38.0001C41.7693 20.3077 44.3847 18.8462 44.3847 15.0769C44.4616 12.7692 43.5385 10.8462 41.3847 10.3077ZM30.6924 4.38461H36.9232C39.0001 4.38461 39.6155 5.15384 39.6155 6.76923C39.6155 8.38461 39.0001 9.15384 36.9232 9.15384H30.6924V4.38461ZM30.6924 17.2308H37.6924C39.9232 17.2308 40.5385 16.4615 40.5385 14.6923C40.5385 12.9231 39.9232 12.0769 37.6924 12.0769H33.077C31.3078 12.0769 30.6924 12.6154 30.6924 13.7692V17.2308Z" fill="white"/>
<path id="XMLID_235_" fill-rule="evenodd" clip-rule="evenodd" d="M88.6154 12.6923L92.8462 20C92.9231 20.0769 92.9231 20.3077 92.7692 20.3077H89.1538C88.8462 20.3077 88.7692 20.2308 88.6154 20L84.7692 13.0769H81.3077C79.5385 13.0769 78.9231 13.6154 78.9231 14.7692V20.3077H75.4615C75.2308 20.3077 75 20.0769 75 19.8462V2.69231C75 1.76923 75.5385 1.38461 76.8462 1.38461H84.9231C89.6154 1.38461 92.4615 2.61538 92.4615 7.23077C92.4615 10.7692 90.6923 12.1538 88.6154 12.6923ZM78.8462 10.1538H85.4615C87.9231 10.1538 88.4615 9.23077 88.4615 7.23077C88.4615 5.30769 87.9231 4.38461 85.4615 4.38461H78.8462V10.1538Z" fill="white"/>
</g>
<g id="XMLID_224_">
<path id="XMLID_232_" d="M122.308 18.6154L122.231 20.3077H108.231V1.38461H121.692L121.769 3.15384H110.154V9.69231H120.154V11.2308H110.154V18.6154H122.308V18.6154Z" fill="#57AD56" stroke="#57AD56" stroke-width="0.25"/>
<g id="XMLID_229_">
<path fill-rule="evenodd" clip-rule="evenodd" d="M133.923 15.3846H145.077L147.231 20.3077H149.385L140.692 1.38461H138.462L129.692 20.3077H131.769L133.923 15.3846ZM134.615 13.7692L138.692 4.61538L139.462 2.69231H139.539L140.308 4.61538L144.308 13.7692H134.615Z" fill="#57AD56"/>
<path d="M145.077 15.3846L145.192 15.3345L145.159 15.2596H145.077V15.3846ZM133.923 15.3846V15.2596H133.841L133.809 15.3345L133.923 15.3846ZM147.231 20.3077L147.116 20.3578L147.149 20.4327H147.231V20.3077ZM149.385 20.3077V20.4327H149.58L149.498 20.2555L149.385 20.3077ZM140.692 1.38461L140.806 1.33244L140.773 1.25961H140.692V1.38461ZM138.462 1.38461V1.25961H138.382L138.348 1.33206L138.462 1.38461ZM129.692 20.3077L129.579 20.2551L129.497 20.4327H129.692V20.3077ZM131.769 20.3077V20.4327H131.851L131.884 20.3578L131.769 20.3077ZM138.692 4.61538L138.807 4.66628L138.808 4.66181L138.692 4.61538ZM134.615 13.7692L134.501 13.7184L134.423 13.8942H134.615V13.7692ZM139.462 2.69231V2.56731H139.377L139.346 2.64588L139.462 2.69231ZM139.539 2.69231L139.655 2.64588L139.623 2.56731H139.539V2.69231ZM140.308 4.61538L140.192 4.66183L140.193 4.66543L140.308 4.61538ZM144.308 13.7692V13.8942H144.499L144.422 13.7192L144.308 13.7692ZM145.077 15.2596H133.923V15.5096H145.077V15.2596ZM147.345 20.2576L145.192 15.3345L144.962 15.4347L147.116 20.3578L147.345 20.2576ZM149.385 20.1827H147.231V20.4327H149.385V20.1827ZM140.579 1.43679L149.271 20.3599L149.498 20.2555L140.806 1.33244L140.579 1.43679ZM138.462 1.50961H140.692V1.25961H138.462V1.50961ZM129.806 20.3602L138.575 1.43717L138.348 1.33206L129.579 20.2551L129.806 20.3602ZM131.769 20.1827H129.692V20.4327H131.769V20.1827ZM133.809 15.3345L131.655 20.2576L131.884 20.3578L134.038 15.4347L133.809 15.3345ZM138.578 4.56453L134.501 13.7184L134.73 13.8201L138.807 4.66624L138.578 4.56453ZM139.346 2.64588L138.576 4.56896L138.808 4.66181L139.578 2.73873L139.346 2.64588ZM139.539 2.56731H139.462V2.81731H139.539V2.56731ZM140.424 4.56896L139.655 2.64588L139.422 2.73873L140.192 4.66181L140.424 4.56896ZM144.422 13.7192L140.422 4.56533L140.193 4.66543L144.193 13.8193L144.422 13.7192ZM134.615 13.8942H144.308V13.6442H134.615V13.8942Z" fill="#57AD56"/>
</g>
<path id="XMLID_227_" d="M163.231 3.15384V20.3077H161.308V3.15384H154.231L154.308 1.38461H170.385V3.15384H163.231V3.15384Z" fill="#57AD56" stroke="#57AD56" stroke-width="0.25"/>
<path id="XMLID_225_" d="M184.077 20.6923C181.462 20.6923 179.385 20.0769 177.692 19.0769L178 17.3846C179.769 18.3846 181.769 19 184.154 19C187.692 19 189.539 17.3846 189.539 15.0769C189.539 10.0769 178 12.6923 178 6.23077C178 3.46154 180.077 1 184.923 1C187.154 1 189.154 1.38462 190.769 2.15385L190.462 3.76923C188.692 3.07692 187 2.69231 185 2.69231C181.231 2.69231 179.846 4.38462 179.846 6.07692C179.846 10.8462 191.385 8.15385 191.385 14.9231C191.308 18.3077 188.846 20.6923 184.077 20.6923V20.6923Z" fill="#57AD56" stroke="#57AD56" stroke-width="0.25"/>
</g>
</g>
</svg>
